<svg viewBox="0 0 256 256" fill="none" xmlns="http://www.w3.org/2000/svg">
<path d="M224 64C223.997 58.0156 222.316 52.152 219.148 47.075C215.979 41.9981 211.451 37.9112 206.077 35.2787C200.703 32.6461 194.698 31.5733 188.744 32.1822C182.791 32.791 177.128 35.057 172.398 38.7228C167.668 42.3887 164.06 47.3075 161.985 52.9207C159.91 58.5338 159.451 64.6163 160.659 70.4775C161.867 76.3386 164.695 81.7435 168.821 86.0782C172.947 90.413 178.206 93.5039 184 95V104C184 108.243 182.314 112.313 179.314 115.314C176.313 118.314 172.243 120 168 120H88C83.7565 120 79.6868 118.314 76.6862 115.314C73.6857 112.313 72 108.243 72 104V95C79.5412 93.0528 86.1135 88.4222 90.4848 81.9759C94.8561 75.5297 96.7263 67.7105 95.7449 59.984C94.7635 52.2575 90.9979 45.1541 85.1538 40.0054C79.3098 34.8567 71.7885 32.0161 64 32.0161C56.2114 32.0161 48.6901 34.8567 42.8461 40.0054C37.002 45.1541 33.2364 52.2575 32.255 59.984C31.2736 67.7105 33.1438 75.5297 37.5151 81.9759C41.8864 88.4222 48.4587 93.0528 56 95V104C56 112.487 59.3714 120.626 65.3725 126.627C71.3737 132.629 79.513 136 88 136H120V161C112.459 162.947 105.886 167.578 101.515 174.024C97.1438 180.47 95.2736 188.289 96.255 196.016C97.2364 203.743 101.002 210.846 106.846 215.995C112.69 221.143 120.211 223.984 128 223.984C135.789 223.984 143.31 221.143 149.154 215.995C154.998 210.846 158.764 203.743 159.745 196.016C160.726 188.289 158.856 180.47 154.485 174.024C150.113 167.578 143.541 162.947 136 161V136H168C176.487 136 184.626 132.629 190.627 126.627C196.629 120.626 200 112.487 200 104V95C206.867 93.2164 212.948 89.2057 217.291 83.596C221.634 77.9862 223.993 71.0944 224 64ZM144 192C144 195.165 143.062 198.258 141.303 200.889C139.545 203.52 137.047 205.571 134.123 206.782C131.199 207.993 127.982 208.31 124.879 207.693C121.775 207.075 118.924 205.551 116.686 203.314C114.449 201.076 112.925 198.225 112.307 195.121C111.69 192.018 112.007 188.801 113.218 185.877C114.429 182.953 116.48 180.455 119.111 178.696C121.742 176.938 124.835 176 128 176C132.243 176 136.313 177.686 139.314 180.686C142.314 183.687 144 187.757 144 192Z" fill="black"/>
</svg>
