<svg width="256" height="256" viewBox="0 0 256 256" fill="none" xmlns="http://www.w3.org/2000/svg">
<path d="M228 64C228 57.4 226.186 50.927 222.756 45.2884C219.326 39.6499 214.411 35.0628 208.55 32.0286C202.689 28.9945 196.106 27.63 189.522 28.0843C182.938 28.5386 176.605 30.7943 171.216 34.6047C165.827 38.4151 161.589 43.6337 158.966 49.69C156.343 55.7462 155.435 62.4071 156.341 68.9445C157.248 75.4819 159.934 81.6443 164.107 86.758C168.279 91.8718 173.777 95.74 180 97.94V104C180 107.183 178.736 110.235 176.485 112.485C174.235 114.736 171.183 116 168 116H88C84.8174 116 81.7652 114.736 79.5147 112.485C77.2643 110.235 76 107.183 76 104V97.94C84.0066 95.1093 90.7547 89.5392 95.0516 82.2143C99.3485 74.8893 100.918 66.2812 99.4816 57.9112C98.0455 49.5413 93.6968 41.9485 87.2039 36.4748C80.7111 31.0011 72.4923 27.9989 64 27.9989C55.5078 27.9989 47.2889 31.0011 40.7961 36.4748C34.3033 41.9485 29.9545 49.5413 28.5185 57.9112C27.0824 66.2812 28.6515 74.8893 32.9484 82.2143C37.2454 89.5392 43.9934 95.1093 52 97.94V104C52 113.548 55.7929 122.705 62.5442 129.456C69.2955 136.207 78.4522 140 88 140H116V158.06C107.993 160.891 101.245 166.461 96.9484 173.786C92.6515 181.111 91.0824 189.719 92.5185 198.089C93.9545 206.459 98.3033 214.052 104.796 219.525C111.289 224.999 119.508 228.001 128 228.001C136.492 228.001 144.711 224.999 151.204 219.525C157.697 214.052 162.046 206.459 163.482 198.089C164.918 189.719 163.349 181.111 159.052 173.786C154.755 166.461 148.007 160.891 140 158.06V140H168C177.548 140 186.705 136.207 193.456 129.456C200.207 122.705 204 113.548 204 104V97.94C211.013 95.4498 217.084 90.8512 221.381 84.7749C225.677 78.6986 227.99 71.442 228 64ZM64 52C66.3734 52 68.6935 52.7038 70.6669 54.0224C72.6402 55.341 74.1783 57.2151 75.0866 59.4078C75.9948 61.6006 76.2325 64.0134 75.7694 66.3411C75.3064 68.6689 74.1635 70.8071 72.4853 72.4853C70.8071 74.1636 68.6689 75.3064 66.3411 75.7695C64.0133 76.2325 61.6005 75.9948 59.4078 75.0866C57.2151 74.1783 55.341 72.6403 54.0224 70.6669C52.7038 68.6935 52 66.3734 52 64C52 60.8174 53.2643 57.7652 55.5147 55.5148C57.7652 53.2643 60.8174 52 64 52ZM128 204C125.627 204 123.307 203.296 121.333 201.978C119.36 200.659 117.822 198.785 116.913 196.592C116.005 194.4 115.768 191.987 116.231 189.659C116.694 187.331 117.837 185.193 119.515 183.515C121.193 181.837 123.331 180.694 125.659 180.231C127.987 179.768 130.399 180.005 132.592 180.913C134.785 181.822 136.659 183.36 137.978 185.333C139.296 187.307 140 189.627 140 192C140 195.183 138.736 198.235 136.485 200.485C134.235 202.736 131.183 204 128 204ZM192 76C189.627 76 187.307 75.2963 185.333 73.9777C183.36 72.6591 181.822 70.785 180.913 68.5922C180.005 66.3995 179.768 63.9867 180.231 61.659C180.694 59.3312 181.837 57.193 183.515 55.5148C185.193 53.8365 187.331 52.6936 189.659 52.2306C191.987 51.7676 194.399 52.0052 196.592 52.9135C198.785 53.8217 200.659 55.3598 201.978 57.3332C203.296 59.3066 204 61.6267 204 64C204 67.1826 202.736 70.2349 200.485 72.4853C198.235 74.7358 195.183 76 192 76Z" fill="black"/>
</svg>
