<svg width="256" height="256" viewBox="0 0 256 256" fill="none" xmlns="http://www.w3.org/2000/svg">
<path d="M222 64C221.999 58.3238 220.387 52.7644 217.353 47.9675C214.318 43.1706 209.985 39.3331 204.856 36.9006C199.728 34.468 194.014 33.5404 188.38 34.2254C182.745 34.9103 177.42 37.1798 173.024 40.7702C168.628 44.3605 165.34 49.1245 163.543 54.5087C161.746 59.893 161.513 65.6765 162.872 71.1877C164.231 76.6988 167.125 81.7114 171.219 85.6432C175.313 89.575 180.438 92.2648 186 93.4V104C186 108.774 184.104 113.352 180.728 116.728C177.352 120.104 172.774 122 168 122H87.9999C83.226 122 78.6477 120.104 75.272 116.728C71.8964 113.352 69.9999 108.774 69.9999 104V93.4C77.2842 91.9131 83.7569 87.7745 88.1631 81.7865C92.5694 75.7985 94.5953 68.3877 93.848 60.9909C93.1008 53.594 89.6337 46.7382 84.1189 41.7524C78.604 36.7666 71.4344 34.0061 63.9999 34.0061C56.5655 34.0061 49.3958 36.7666 43.881 41.7524C38.3662 46.7382 34.8991 53.594 34.1519 60.9909C33.4046 68.3877 35.4305 75.7985 39.8368 81.7865C44.243 87.7745 50.7157 91.9131 57.9999 93.4V104C57.9999 111.956 61.1606 119.587 66.7867 125.213C72.4128 130.839 80.0434 134 87.9999 134H122V162.6C114.716 164.087 108.243 168.226 103.837 174.214C99.4305 180.202 97.4046 187.612 98.1519 195.009C98.8991 202.406 102.366 209.262 107.881 214.248C113.396 219.233 120.565 221.994 128 221.994C135.434 221.994 142.604 219.233 148.119 214.248C153.634 209.262 157.101 202.406 157.848 195.009C158.595 187.612 156.569 180.202 152.163 174.214C147.757 168.226 141.284 164.087 134 162.6V134H168C175.956 134 183.587 130.839 189.213 125.213C194.839 119.587 198 111.956 198 104V93.4C204.772 92.0081 210.857 88.3238 215.229 82.9682C219.6 77.6127 221.992 70.9134 222 64ZM45.9999 64C45.9999 60.4399 47.0556 56.9598 49.0335 53.9997C51.0114 51.0397 53.8226 48.7325 57.1116 47.3702C60.4007 46.0078 64.0199 45.6513 67.5116 46.3459C71.0032 47.0404 74.2105 48.7547 76.7279 51.2721C79.2452 53.7894 80.9595 56.9967 81.6541 60.4884C82.3486 63.98 81.9921 67.5992 80.6298 70.8883C79.2674 74.1774 76.9603 76.9886 74.0002 78.9665C71.0401 80.9443 67.56 82 63.9999 82C59.226 82 54.6477 80.1036 51.272 76.7279C47.8964 73.3523 45.9999 68.7739 45.9999 64ZM146 192C146 195.56 144.944 199.04 142.966 202C140.989 204.96 138.177 207.267 134.888 208.63C131.599 209.992 127.98 210.349 124.488 209.654C120.997 208.96 117.789 207.245 115.272 204.728C112.755 202.211 111.04 199.003 110.346 195.512C109.651 192.02 110.008 188.401 111.37 185.112C112.732 181.823 115.04 179.011 118 177.034C120.96 175.056 124.44 174 128 174C132.774 174 137.352 175.896 140.728 179.272C144.104 182.648 146 187.226 146 192ZM192 82C188.44 82 184.96 80.9443 182 78.9665C179.04 76.9886 176.732 74.1774 175.37 70.8883C174.008 67.5992 173.651 63.98 174.346 60.4884C175.04 56.9967 176.755 53.7894 179.272 51.2721C181.789 48.7547 184.997 47.0404 188.488 46.3459C191.98 45.6513 195.599 46.0078 198.888 47.3702C202.177 48.7325 204.989 51.0397 206.966 53.9997C208.944 56.9598 210 60.4399 210 64C210 68.7739 208.104 73.3523 204.728 76.7279C201.352 80.1036 196.774 82 192 82Z" fill="black"/>
</svg>
