<svg width="26" height="26" viewBox="0 0 26 26" fill="none" xmlns="http://www.w3.org/2000/svg">
<path d="M23.633 5.02801C23.5356 4.91682 23.4164 4.82693 23.2827 4.76395C23.149 4.70098 23.0037 4.66627 22.856 4.66201C20.561 4.60201 17.657 2.14801 15.737 1.18501C14.551 0.592007 13.768 0.201007 13.18 0.0980065C13.0606 0.0806091 12.9393 0.0809461 12.82 0.0990065C12.232 0.202007 11.449 0.593007 10.264 1.18601C8.34401 2.14801 5.44001 4.60201 3.14501 4.66201C2.99718 4.66649 2.85184 4.70129 2.71801 4.76425C2.58419 4.82721 2.46471 4.91698 2.36701 5.02801C2.16448 5.25714 2.05999 5.55662 2.07601 5.86201C2.56901 15.885 6.16401 22.088 12.472 25.693C12.636 25.786 12.818 25.834 12.999 25.834C13.18 25.834 13.362 25.786 13.527 25.693C19.835 22.088 23.429 15.885 23.923 5.86201C23.94 5.55666 23.8357 5.25696 23.633 5.02801ZM18.617 8.97001L13.294 16.825C13.103 17.107 12.803 17.294 12.506 17.294C12.208 17.294 11.877 17.131 11.668 16.922L7.91601 13.169C7.79351 13.0461 7.72473 12.8796 7.72473 12.706C7.72473 12.5324 7.79351 12.366 7.91601 12.243L8.84301 11.314C8.96622 11.192 9.13261 11.1235 9.30601 11.1235C9.47941 11.1235 9.6458 11.192 9.76901 11.314L12.209 13.754L16.448 7.49701C16.5461 7.35382 16.6968 7.25527 16.8673 7.22285C17.0378 7.19044 17.2142 7.2268 17.358 7.32401L18.443 8.06001C18.5863 8.15793 18.6851 8.30861 18.7177 8.47912C18.7503 8.64962 18.7141 8.82611 18.617 8.97001Z" fill="black"/>
</svg>
